<svg version="1.1" viewBox="0 0 96 96" xmlns="http://www.w3.org/2000/svg" xmlns:xlink="http://www.w3.org/1999/xlink" id="Icons_PresentationPieChart" overflow="hidden"><path d=" M 50.41 41 L 58.57 49.16 C 60.572 46.8864 61.7764 44.0211 62 41 Z"/><path d=" M 47 40.41 L 47 26.05 C 39.2862 26.5803 33.4629 33.2635 33.9933 40.9773 C 34.5236 48.6911 41.2068 54.5144 48.9206 53.9841 C 51.9658 53.7747 54.8591 52.5758 57.16 50.57 Z"/><path d=" M 49 39 L 62 39 C 61.4938 32.0494 55.9525 26.5294 49 26.05 Z"/><path d=" M 76 22 L 76 58 L 20 58 L 20 22 Z M 84 60 L 82 60 L 82 19 L 84 19 C 85.1046 19 86 18.1046 86 17 C 86 15.8954 85.1046 15 84 15 L 50 15 L 50 13 C 50 11.8954 49.1046 11 48 11 C 46.8954 11 46 11.8954 46 13 L 46 15 L 12 15 C 10.8954 15 10 15.8954 10 17 C 10 18.1046 10.8954 19 12 19 L 14 19 L 14 60 L 12 60 C 10.8954 60 10 60.8954 10 62 C 10 63.1046 10.8954 64 12 64 L 42.54 64 L 27.14 79.4 C 26.3585 80.1898 26.3652 81.4635 27.155 82.245 C 27.9448 83.0265 29.2185 83.0198 30 82.23 L 46 66.23 L 46 84 C 46 85.1046 46.8954 86 48 86 C 49.1046 86 50 85.1046 50 84 L 50 66.2 L 66 82.2 C 66.7815 82.9815 68.0485 82.9815 68.83 82.2 C 69.6115 81.4185 69.6115 80.1515 68.83 79.37 L 53.46 64 L 84 64 C 85.1046 64 86 63.1046 86 62 C 86 60.8954 85.1046 60 84 60 Z"/></svg>